# xmcd
# Copyright (C) 1995-1998 Ti Kan
#
# Track frame offsets:
#       150
#       105532
#       187382
#
# Disc length: 3358 seconds
#
# Revision: 0
# Processed by: cddbd v1.5.2PL0 Copyright (c) Steve Scherf et al.
# Submitted via: CD-Transfer v1.0
#
DISCID=250d1c03
DTITLE=Fasnacht Grenchen 2007 - 
DYEAR=1900
DGENRE=
TTITLE0=Fasnacht Grenchen 2007 1/3
TTITLE1=Fasnacht Grenchen 2007 2/3
TTITLE2=Fasnacht Grenchen 2007 3/3
EXTD=
EXTT0=
EXTT1=
EXTT2=
PLAYORDER=
